<?xml version="1.0" encoding="UTF-8" standalone="no"?>
<svg
   width="900"
   height="980"
   viewBox="0 0 900 980"
   role="img"
   aria-labelledby="title desc"
   version="1.1"
   id="svg9"
   sodipodi:docname="esquilo-invest-logo-vertical.svg"
   inkscape:version="1.4.3 (0d15f75, 2025-12-25)"
   xmlns:inkscape="http://www.inkscape.org/namespaces/inkscape"
   xmlns:sodipodi="http://sodipodi.sourceforge.net/DTD/sodipodi-0.dtd"
   xmlns="http://www.w3.org/2000/svg"
   xmlns:svg="http://www.w3.org/2000/svg">
  <sodipodi:namedview
     id="namedview9"
     pagecolor="#ffffff"
     bordercolor="#000000"
     borderopacity="0.25"
     inkscape:showpageshadow="2"
     inkscape:pageopacity="0.0"
     inkscape:pagecheckerboard="0"
     inkscape:deskcolor="#d1d1d1"
     inkscape:zoom="0.82346939"
     inkscape:cx="450.53284"
     inkscape:cy="490"
     inkscape:window-width="1920"
     inkscape:window-height="1009"
     inkscape:window-x="-8"
     inkscape:window-y="-8"
     inkscape:window-maximized="1"
     inkscape:current-layer="g8" />
  <title
     id="title">Esquilo Invest logo vertical</title>
  <desc
     id="desc">Logo vertical do Esquilo Invest com símbolo de esquilo estilizado em laranja e wordmark em grafite em duas linhas.</desc>
  <defs
     id="defs1">
    <style
       id="style1">
      .brand {
        font-family: &quot;Sora&quot;, &quot;Inter&quot;, &quot;Segoe UI&quot;, Arial, sans-serif;
        font-weight: 700;
        letter-spacing: -0.5px;
      }
    </style>
  </defs>
  <rect
     width="900"
     height="980"
     fill="#FFFFFF"
     id="rect1" />
  <g
     transform="translate(210 100)"
     id="g9">
    <g
       transform="scale(1.9)"
       id="g7">
      <!-- tail -->
      <path
         d="M118 78            C118 44, 92 20, 58 20            C31 20, 12 36, 12 58            C29 50, 45 48, 58 50            C72 53, 80 63, 80 79            C80 96, 71 107, 58 118            C48 126, 42 138, 42 152            C42 177, 60 196, 84 202            C65 197, 51 181, 51 160            C51 148, 56 138, 65 131            C80 119, 92 104, 92 81            C92 68, 88 57, 80 48            C95 54, 106 66, 118 78 Z"
         fill="#F56A2A"
         id="path1" />
      <!-- back + head -->
      <path
         d="M97 202            C77 191, 67 172, 67 149            C67 129, 76 111, 92 95            L140 47            C148 39, 152 29, 152 18            C152 9, 158 3, 167 3            C175 3, 180 9, 181 17            C182 28, 187 37, 197 44            C215 56, 228 74, 228 97            C228 122, 217 141, 198 154            C184 164, 169 169, 152 171            L152 183            C152 194, 159 202, 170 202            L97 202 Z"
         fill="#F56A2A"
         id="path2" />
      <!-- belly cut -->
      <path
         d="M127 202            C124 194, 123 186, 123 177            C123 147, 145 125, 174 125            C182 125, 190 127, 197 131            C188 117, 173 108, 156 108            C128 108, 106 129, 106 157            C106 174, 114 190, 127 202 Z"
         fill="#FFFFFF"
         id="path3" />
      <!-- paw / arm -->
      <path
         d="M142 121            C153 128, 164 132, 177 132            C183 132, 187 136, 187 141            C187 146, 183 149, 177 149            C160 149, 145 143, 132 133            C127 129, 126 123, 130 119            C134 115, 138 116, 142 121 Z"
         fill="#FFFFFF"
         id="path4" />
      <!-- ear cut -->
      <path
         d="M171 23            C171 31, 168 39, 162 45            C157 39, 154 30, 154 21            C154 14, 158 10, 163 10            C168 10, 171 15, 171 23 Z"
         fill="#FFFFFF"
         id="path5" />
      <!-- eye -->
      <circle
         cx="186"
         cy="88"
         r="8"
         fill="#0B1218"
         id="circle5" />
      <!-- nose -->
      <path
         d="M223 97            C231 98, 236 104, 236 111            C236 117, 232 121, 225 123            C226 116, 225 106, 223 97 Z"
         fill="#0B1218"
         id="path6" />
      <!-- leg separation -->
      <path
         d="M118 202            C122 189, 131 180, 143 176            C135 183, 132 191, 132 202            L118 202 Z"
         fill="#F56A2A"
         id="path7" />
    </g>
    <g
       transform="translate(-40 620)"
       id="g8">
      <text
         class="brand"
         x="0"
         y="0"
         font-size="150"
         fill="#0B1218"
         id="text7"
         style="-inkscape-font-specification:'Sora Bold';font-family:Sora;font-weight:bold;font-style:normal;font-stretch:normal;font-variant:normal">Esquilo</text>
      <text
         class="brand"
         x="0"
         y="145"
         font-size="150px"
         fill="#0b1218"
         id="text8"><tspan
           style="font-style:normal;font-variant:normal;font-weight:300;font-stretch:normal;font-family:Inter;-inkscape-font-specification:'Inter Light'"
           id="tspan9">invest</tspan></text>
    </g>
  </g>
</svg>
